<svg xmlns="http://www.w3.org/2000/svg" viewBox="0 0 30 30">
  <defs>
    <style>
      .cls-1 {
        fill: #1f3847;
      }
    </style>
  </defs>
  <g id="ic-chose_country" transform="translate(0 -0.05)">
    <g id="Group_258" data-name="Group 258" transform="translate(0 0.05)">
      <path id="Path_134" data-name="Path 134" class="cls-1" d="M15.005.05a15,15,0,0,0-13.789,9.1l-.187.062.072.217A15,15,0,1,0,15.005.05ZM26.769,22.613l-.77-.77V20.05a.5.5,0,0,0-.05-.223L24,15.932V14.05a.5.5,0,0,0-.222-.416l-1.5-1a.5.5,0,0,0-.4-.069l-1.837.459L16.955,11.7l-.424-2.974L17.707,7.55h2.525l.85,1.277a.5.5,0,0,0,.334.215l3,.5a.5.5,0,0,0,.24-.019L27.418,8.6A13.952,13.952,0,0,1,26.769,22.613ZM24.707,4.977l-.813.542-2.266-.453-1.47-.489a.491.491,0,0,0-.279-.011l-1.859.464-.815-.272.6-1.208H19.5a.5.5,0,0,0,.223-.052l1.73-.865A14.049,14.049,0,0,1,24.707,4.977ZM9.526,2.166l1.2.8a.5.5,0,0,0,.2.077l2.422.4-.236.707-1.262.422a.5.5,0,0,0-.27.217L10.138,7.186,7.832,8.57l-3.4.486A.5.5,0,0,0,4,9.55v1.5a.5.5,0,0,0,.146.354L5,12.257v.859l-2.08-1.387L2.169,9.465A14.079,14.079,0,0,1,9.526,2.166ZM8.1,18.56l-2.26-.452L5,16.432V15.257l1.863-1.863.689,1.379A.5.5,0,0,0,8,15.05h3.216l1.354,2.258A.5.5,0,0,0,13,17.55h1.39l-.35,1.753L12.148,21.2A.5.5,0,0,0,12,21.55V22.8l-1.8,1.35a.5.5,0,0,0-.2.4v1.806L9.38,26.15l-.878-2.2v-4.9A.5.5,0,0,0,8.1,18.56ZM6.6,26.246A14,14,0,0,1,1.614,10.962l.415,1.246a.5.5,0,0,0,.2.258l2.492,1.662L4.15,14.7A.5.5,0,0,0,4,15.05v1.5a.5.5,0,0,0,.052.224l1,2a.5.5,0,0,0,.35.267l2.1.42v4.59a.5.5,0,0,0,.035.185l1,2.5a.5.5,0,0,0,.306.288l1.5.5a.491.491,0,0,0,.155.026.5.5,0,0,0,.5-.5V24.8l1.8-1.35a.5.5,0,0,0,.2-.4V21.757L14.854,19.9a.5.5,0,0,0,.136-.256l.5-2.5a.5.5,0,0,0-.49-.6H13.284L11.93,14.292a.5.5,0,0,0-.428-.243H8.311l-.859-1.724a.5.5,0,0,0-.367-.27.49.49,0,0,0-.433.14L6,12.843V12.05a.5.5,0,0,0-.146-.354L5,10.843v-.86l3.07-.438a.5.5,0,0,0,.186-.067l2.5-1.5a.5.5,0,0,0,.171-.171l1.4-2.341,1.324-.442a.5.5,0,0,0,.316-.316l.5-1.5a.5.5,0,0,0-.392-.65L11.19,2.075l-.508-.339a13.956,13.956,0,0,1,9.614.357l-.913.456H17.5a.5.5,0,0,0-.45.276l-1,2a.5.5,0,0,0,.289.7l1.5.5a.491.491,0,0,0,.279.011l1.859-.464,1.362.453a.367.367,0,0,0,.06.016l2.5.5a.5.5,0,0,0,.375-.074l1.138-.759a14.105,14.105,0,0,1,1.5,2.009l-2.459.82-2.663-.444-.88-1.32A.5.5,0,0,0,20.5,6.55h-3a.5.5,0,0,0-.353.147l-1.5,1.5a.5.5,0,0,0-.141.424l.5,3.5a.5.5,0,0,0,.3.388l3.5,1.5a.494.494,0,0,0,.318.026l1.785-.447L23,14.317V16.05a.5.5,0,0,0,.05.224L25,20.168V22.05a.5.5,0,0,0,.146.354l1.046,1.046A13.992,13.992,0,0,1,6.6,26.246Z" transform="translate(0 -0.05)"/>
    </g>
  </g>
</svg>
